# xmcd
#
# Track frame offsets:
#	150
#	13065
#	32209
#	43699
#	57170
#
# Disc length: 936 seconds
#
# Revision: 1
# Processed by: cddbd v1.5.2PL0 Copyright (c) Steve Scherf et al.
# Submitted via: audiograbber 1.82.01
#
DISCID=3b03a605
DTITLE=Talk that talk - Talk that talk
DYEAR=1998
DGENRE=Blues
TTITLE0=Freezing slip
TTITLE1=Only one
TTITLE2=Roots and Rythm
TTITLE3=Stop messing around
TTITLE4=Maxican dream
EXTD=
EXTT0=
EXTT1=
EXTT2=
EXTT3=
EXTT4=
PLAYORDER=
